PathFileType	4	(X/Y/Z)	C:\Users\Basilio\Documents\Thesis Gigler\squatting_fais\c3dfiles\054\SLS_back_pre5\markers_experimental.trc
DataRate	CameraRate	NumFrames	NumMarkers	Units	OrigDataRate	OrigDataStartFrame	OrigNumFrames
200.000000	200.000000	4	61	mm	200.000000	185	1480
Frame#	Time	FHD			LBHD			RBHD			C7			T10			CLAV			LSHO			LUUPA			LMUPA			LDUPA			LLEP			LMEP			LRAD			LUL			LRFIN			RSHO			RUPA1			RMUPA			RDUPA			RLEP			RMEP			RRAD			RUL			RUFIN			LASI			RASI			USACR			LSACR			RSACR			LTHI1			LTHI2			LTHI3			LTHI4			LLFC			LMFC			LTIB1			LTIB2			LTIB3			LTIB4			LLMAL			LMMAL			LHEE			LMT1			LMT2			LMT5			RTHI			RTHI2			RTHI3			RTHI4			RLFC			RMFC			RTIB1			RTIB2			RTIB3			RTIB4			RLMAL			RMMAL			RHEE			RMT1			RMT2			RMT5			
		X1	Y1	Z1	X2	Y2	Z2	X3	Y3	Z3	X4	Y4	Z4	X5	Y5	Z5	X6	Y6	Z6	X7	Y7	Z7	X8	Y8	Z8	X9	Y9	Z9	X10	Y10	Z10	X11	Y11	Z11	X12	Y12	Z12	X13	Y13	Z13	X14	Y14	Z14	X15	Y15	Z15	X16	Y16	Z16	X17	Y17	Z17	X18	Y18	Z18	X19	Y19	Z19	X20	Y20	Z20	X21	Y21	Z21	X22	Y22	Z22	X23	Y23	Z23	X24	Y24	Z24	X25	Y25	Z25	X26	Y26	Z26	X27	Y27	Z27	X28	Y28	Z28	X29	Y29	Z29	X30	Y30	Z30	X31	Y31	Z31	X32	Y32	Z32	X33	Y33	Z33	X34	Y34	Z34	X35	Y35	Z35	X36	Y36	Z36	X37	Y37	Z37	X38	Y38	Z38	X39	Y39	Z39	X40	Y40	Z40	X41	Y41	Z41	X42	Y42	Z42	X43	Y43	Z43	X44	Y44	Z44	X45	Y45	Z45	X46	Y46	Z46	X47	Y47	Z47	X48	Y48	Z48	X49	Y49	Z49	X50	Y50	Z50	X51	Y51	Z51	X52	Y52	Z52	X53	Y53	Z53	X54	Y54	Z54	X55	Y55	Z55	X56	Y56	Z56	X57	Y57	Z57	X58	Y58	Z58	X59	Y59	Z59	X60	Y60	Z60	X61	Y61	Z61	

186	0.925	-197.4687652587891	1788.434326171875	-1099.046997070313	-358.8372497558594	1732.034057617188	-1167.810180664063	-375.4439392089844	1734.296142578125	-1028.395751953125	-398.8276672363282	1561.017578125	-1082.579223632813	-416.9431457519532	1231.62109375	-1069.298461914063	-252.3236694335938	1508.084716796875	-1087.155395507813	-328.6846618652344	1554.945678710938	-1237.775146484375	-177.0191345214844	1424.741088867188	-1354.626098632813	-144.3250427246094	1459.501831054688	-1344.208374023438	-108.9882125854492	1415.061279296875	-1364.894165039063	-49.78956222534181	1417.474731445313	-1362.202880859375	-50.78576278686525	1356.878662109375	-1311.908081054688	193.1371459960938	1463.196533203125	-1255.702026367188	218.9201049804688	1424.221435546875	-1318.015869140625	286.6469421386719	1485.978149414063	-1265.567260742188	-318.0327758789063	1565.80322265625	-939.4507446289065	-172.3541870117188	1442.834838867188	-801.971374511719	-134.7515106201172	1471.474487304688	-812.670837402344	-105.6610717773438	1423.584716796875	-788.1259765625002	-59.4557228088379	1415.630126953125	-787.411560058594	-63.49457168579103	1358.193969726563	-840.6257934570315	180.3097076416016	1491.35400390625	-931.6738281250002	196.8486938476563	1464.479248046875	-858.1113891601565	251.973617553711	1532.550903320313	-929.0417480468752	-225.0080718994141	1050.8994140625	-1173.220336914063	-239.8737335205079	1067.62890625	-921.372741699219	-417.0091247558595	1148.868774414063	-1062.928100585938	-421.5621948242189	1115.553466796875	-1089.6826171875	-425.4851379394532	1117.817138671875	-1032.463623046875	-309.9864807128907	806.8516845703127	-1238.741577148438	-278.6913452148438	728.7152709960939	-1226.341430664063	-231.7828674316407	732.9885864257814	-1218.883178710938	-308.5707397460938	678.6951904296876	-1205.143798828125	-311.2449951171876	524.8330078125001	-1167.39892578125	-283.4443969726563	535.8269042968751	-1030.969360351563	-276.2578735351563	366.4796752929688	-1098.122314453125	-325.3552551269532	314.5433349609376	-1150.034912109375	-287.5606384277344	314.5304260253907	-1124.253662109375	-297.2863769531251	242.2557525634766	-1081.138793945313	-359.9607849121094	108.5877304077149	-1104.087036132813	-328.9109191894532	132.9695587158203	-1015.202087402344	-428.199188232422	100.9409790039063	-1043.63671875	-217.0180358886719	57.12545013427736	-1020.969299316406	-208.629867553711	54.11450576782228	-1070.089721679688	-260.3220214843751	37.10998916625977	-1121.202392578125	-295.6380004882813	770.6386718750002	-817.4434204101565	-248.5961456298829	723.5900878906251	-806.4727172851565	-215.4125976562501	727.9469604492189	-808.7881469726565	-263.9878845214844	641.3455200195314	-818.091247558594	-277.2944946289063	592.1778564453126	-827.4477539062502	-201.0959167480469	559.5866699218751	-940.8538818359377	-339.9331665039063	508.157928466797	-863.9997558593752	-433.2968139648439	561.3269653320314	-863.0098876953127	-426.3787231445314	516.5029296875001	-874.1226806640627	-459.2088623046876	495.194061279297	-916.8247070312502	-637.7171020507814	519.3556518554689	-964.4376220703127	-581.5837402343751	488.2391357421876	-1035.479125976563	-638.9926147460939	584.4849853515626	-1026.178588867188	-653.7722778320314	365.1748352050782	-1066.817260742188	-673.9669799804689	359.4756774902344	-1021.283386230469	-714.3667602539064	405.0144042968751	-987.7181396484377	
187	0.93	-197.2571258544922	1788.42578125	-1099.000366210938	-358.3378601074219	1732.03955078125	-1167.927490234375	-374.9775695800782	1734.333740234375	-1028.581176757813	-398.4229736328126	1561.033935546875	-1082.743408203125	-416.8811035156251	1231.70361328125	-1069.40966796875	-251.9625854492188	1508.070068359375	-1087.275024414063	-328.3887329101563	1554.922119140625	-1237.877685546875	-176.6634216308594	1424.487670898438	-1354.697631835938	-144.164047241211	1459.280029296875	-1344.340942382813	-108.6520919799805	1414.779663085938	-1364.899169921875	-49.50962829589845	1417.238159179688	-1362.282104492188	-50.33477020263673	1356.790405273438	-1311.771850585938	193.8547821044922	1463.158203125	-1256.001586914063	219.2704162597657	1424.111938476563	-1318.252685546875	287.1649475097657	1485.822509765625	-1265.900268554688	-317.8770141601563	1565.762451171875	-939.549743652344	-172.052490234375	1442.678955078125	-802.101257324219	-134.298095703125	1471.41943359375	-812.8623046875002	-105.3045501708985	1423.54736328125	-788.2841796875002	-59.30889892578126	1415.600219726563	-787.468444824219	-63.19333648681642	1358.1416015625	-840.7759399414065	180.6130828857422	1491.312622070313	-931.8441162109377	197.1788787841797	1464.511352539063	-858.3159790039065	251.9821777343751	1532.625	-929.2481689453127	-225.0426483154297	1050.859497070313	-1173.302001953125	-239.9425201416016	1067.568115234375	-921.463562011719	-417.045623779297	1148.96826171875	-1063.119750976563	-422.8668518066407	1116.009643554688	-1089.672119140625	-425.8463134765626	1118.077270507813	-1032.6015625	-310.1304016113282	806.874694824219	-1239.0126953125	-279.0260314941407	728.8741455078126	-1226.53662109375	-231.8604888916016	732.8742065429689	-1218.84912109375	-308.6287841796876	678.7399902343751	-1205.263793945313	-310.8869018554688	524.7320556640626	-1167.425659179688	-283.8699340820313	535.7911376953126	-1030.996704101563	-276.3502197265626	366.5051879882813	-1098.286987304688	-325.5948181152344	314.5380249023438	-1150.169921875	-288.0514221191407	314.4759521484376	-1124.261108398438	-297.3311157226563	242.2547760009766	-1081.263916015625	-360.0412292480469	108.5451812744141	-1104.140625	-328.9276733398438	133.0350189208985	-1015.347473144531	-428.2504272460939	100.9569702148438	-1043.668823242188	-217.028793334961	57.14181137084962	-1020.998657226563	-208.6242980957032	54.13304901123048	-1070.110473632813	-260.3605041503907	37.1517562866211	-1121.16748046875	-296.1826477050782	770.4551391601565	-817.6253662109377	-249.3099670410157	723.4750366210939	-806.5757446289065	-216.1589965820313	727.8053588867189	-808.9450683593752	-264.7919616699219	641.1447143554689	-818.2987060546877	-278.4930114746094	592.0993652343751	-827.4984130859377	-202.3549499511719	559.1400756835939	-940.8887329101565	-340.8915100097657	508.0859680175782	-864.3189697265627	-434.3039855957032	561.3195800781251	-863.4323730468752	-427.6519775390626	516.4134521484376	-874.3328857421877	-460.3364868164064	495.096160888672	-917.3977050781252	-638.6953735351564	519.4000244140626	-964.9971923828127	-582.5254516601564	487.9212646484376	-1035.63232421875	-639.8385009765626	584.2819213867189	-1026.877075195313	-654.3301391601564	365.2156372070313	-1066.662109375	-675.1619873046876	359.4005737304688	-1021.97900390625	-715.6860351562501	405.2604980468751	-988.1186523437502	
188	0.9350000000000001	-196.7893371582032	1788.49267578125	-1098.983032226563	-357.7844543457032	1732.035400390625	-1168.0322265625	-374.6104125976563	1734.320068359375	-1028.761596679688	-398.0883789062501	1561.118896484375	-1082.85595703125	-416.683563232422	1231.762817382813	-1069.538818359375	-251.6165924072266	1508.04541015625	-1087.394287109375	-328.0494995117188	1554.921142578125	-1238.043579101563	-176.7820587158203	1424.54736328125	-1355.5439453125	-143.8275909423828	1459.116577148438	-1344.419555664063	-108.632553100586	1414.704956054688	-1364.882934570313	-49.206600189209	1416.998413085938	-1362.364501953125	-49.99741363525392	1356.43212890625	-1311.844360351563	193.9012908935547	1463.177978515625	-1256.238647460938	219.6969451904297	1423.94140625	-1318.541137695313	287.4886474609376	1485.777099609375	-1266.225708007813	-317.6737670898438	1565.655029296875	-939.6704101562502	-171.6630554199219	1442.589721679688	-802.267272949219	-134.1615295410157	1471.368774414063	-812.934265136719	-105.1058425903321	1423.463745117188	-788.4456176757815	-59.04045867919923	1415.6591796875	-787.634460449219	-62.90393066406251	1358.11181640625	-840.985290527344	181.0470581054688	1491.237426757813	-932.2009887695315	197.4681396484376	1464.455688476563	-858.5183715820315	252.2448425292969	1532.555297851563	-929.4485473632815	-225.076400756836	1050.800537109375	-1173.452758789063	-240.0033874511719	1067.47509765625	-921.5500488281252	-417.0337829589845	1149.099731445313	-1063.301879882813	-422.8044433593751	1116.1298828125	-1089.750610351563	-425.742889404297	1118.17041015625	-1032.783203125	-310.2380371093751	806.8869628906252	-1239.205078125	-278.9335327148438	728.7244262695314	-1226.673461914063	-232.0217742919922	733.0165405273439	-1219.209838867188	-308.7036437988282	678.7424926757814	-1205.328491210938	-310.9696960449219	524.7183227539064	-1167.57861328125	-284.1219177246094	535.8048706054689	-1031.009887695313	-276.3709106445313	366.5390319824219	-1098.486450195313	-325.6875305175782	314.3545532226563	-1150.375610351563	-288.2840881347657	314.4717712402344	-1124.327514648438	-297.4122924804688	242.2883605957032	-1081.484008789063	-360.0476379394532	108.5358276367188	-1104.171752929688	-328.9275207519532	133.0469207763672	-1015.399291992188	-428.2873840332032	100.9471664428711	-1043.710205078125	-216.9246673583985	57.28078460693361	-1020.99169921875	-208.6274108886719	54.16301727294923	-1070.138549804688	-260.6169738769532	37.15528106689454	-1121.239501953125	-296.8950500488282	770.3847656250002	-817.685974121094	-250.1353912353516	723.1552734375001	-806.6873779296877	-217.0838623046876	727.4470214843751	-808.9580078125002	-265.6819458007813	641.0563354492189	-818.382995605469	-279.4573974609376	591.9345092773439	-827.4866333007815	-203.833724975586	558.9661254882814	-940.879089355469	-342.1637878417969	507.9666137695314	-864.5562133789065	-435.4522094726564	561.3896484375001	-863.5554199218752	-428.5982055664064	516.4441528320314	-874.481140136719	-461.2540588378907	494.9798889160157	-917.4109497070315	-640.0000000000001	519.6095581054689	-965.2407836914065	-583.3608398437501	487.8028869628907	-1035.900146484375	-640.6969604492189	584.2581787109376	-1027.514038085938	-655.6571044921876	365.2680664062501	-1067.05078125	-675.9371337890626	359.1202087402344	-1023.115905761719	-716.6097412109376	405.3594360351564	-988.476013183594	
189	0.9400000000000001	-196.4607238769532	1788.50048828125	-1098.963989257813	-357.3004455566407	1732.069091796875	-1168.169067382813	-374.2274169921876	1734.34716796875	-1028.847778320313	-397.703582763672	1561.156616210938	-1083.038696289063	-416.5808105468751	1231.844116210938	-1069.630249023438	-251.2677917480469	1508.061157226563	-1087.509033203125	-327.5482788085938	1554.844482421875	-1238.20654296875	-176.4605560302735	1424.300415039063	-1355.637939453125	-143.5731353759766	1458.880737304688	-1344.519409179688	-108.4059524536133	1414.437622070313	-1364.909790039063	-48.9118995666504	1416.744995117188	-1362.43212890625	-49.70458984375001	1356.2021484375	-1311.852172851563	194.0712585449219	1463.200805664063	-1256.502807617188	219.9456634521485	1423.856201171875	-1318.786987304688	287.8405761718751	1485.642700195313	-1266.685180664063	-317.4597473144532	1565.563110351563	-939.7590942382815	-171.2544708251953	1442.53369140625	-802.426696777344	-134.0001220703125	1471.308227539063	-813.083435058594	-104.9315795898438	1423.474487304688	-788.4653320312502	-58.83263778686525	1415.57861328125	-787.741638183594	-62.55332946777345	1358.151977539063	-841.193298339844	181.4222106933594	1491.164306640625	-932.4772949218752	197.6604003906251	1464.423950195313	-858.685974121094	252.4147644042969	1532.454345703125	-929.614685058594	-225.0712127685547	1050.76171875	-1173.526977539063	-240.1183319091797	1067.369506835938	-921.6142578125002	-416.9500122070314	1149.182373046875	-1063.450317382813	-422.0680236816407	1116.053344726563	-1089.927001953125	-425.7789611816407	1118.30126953125	-1032.890747070313	-310.4298706054688	806.914489746094	-1239.42529296875	-279.0759887695313	728.7633056640626	-1226.853759765625	-232.1975555419922	732.9937133789064	-1219.409912109375	-308.8871154785157	678.7582397460939	-1205.522583007813	-311.1317138671876	524.7647705078126	-1167.682373046875	-284.3932495117188	535.7709960937501	-1031.083129882813	-276.4365539550782	366.5510864257813	-1098.619018554688	-325.8747253417969	314.2995300292969	-1150.532104492188	-288.4523010253907	314.4330139160157	-1124.444580078125	-297.4067382812501	242.2926483154297	-1081.569946289063	-359.9261779785157	108.3462219238282	-1104.279907226563	-328.9471435546876	133.0895538330078	-1015.497192382813	-428.3200988769532	100.9729614257813	-1043.748657226563	-217.0325164794922	57.2457962036133	-1020.956420898438	-208.6551513671876	54.1782684326172	-1070.119995117188	-260.3106384277344	37.10143280029298	-1121.213989257813	-297.4955139160157	770.371520996094	-817.8111572265627	-251.0362701416016	722.9487304687501	-806.9260253906252	-217.8286895751954	727.1638793945314	-809.0200195312502	-266.7779541015626	640.8369750976564	-818.4860839843752	-280.3887939453126	591.7744750976564	-827.8480224609377	-204.7592773437501	558.6406250000001	-940.9771118164065	-343.2134704589844	507.9254455566407	-864.7222900390627	-436.4228515625001	561.2948608398439	-863.8558349609377	-429.6562805175782	516.3568725585939	-874.7535400390627	-462.5418701171876	494.9039306640626	-917.475769042969	-640.6979980468751	519.6205444335939	-965.8152465820315	-584.2359008789064	487.6724853515626	-1036.309814453125	-641.3311157226564	584.1505126953126	-1028.148193359375	-656.8889160156251	365.1724548339844	-1067.3056640625	-677.3343505859376	359.2723388671876	-1022.935546875	-717.7322998046876	405.3528442382814	-988.6844482421877	
